# xmcd CD database file
#
# Track frame offsets:
#	150
#	29500
#	59878
#	83403
#	112823
#	139813
#	170458
#	192287
#	219016
#	239915
#
# Disc length: 3611 seconds
#
# Revision: 0
# Processed by: cddbd v1.5.2PL0 Copyright (c) Steve Scherf et al.
# Submitted via: CDex 1.50
#
DISCID=8a0e190a
DTITLE=Emmet Cohen  - In The Element 
DYEAR=2011
DGENRE=Jazz
TTITLE0=It's Alright With Me
TTITLE1=Resentment (Without Reason)
TTITLE2=Where Or When
TTITLE3=The Swarm
TTITLE4=Just Deserts
TTITLE5=Good Morning Heartache
TTITLE6=In The Element
TTITLE7=Simone
TTITLE8=For All We Know
TTITLE9=3 O'clock In The Morning
EXTD=YEAR: 2011
EXTT0=
EXTT1=
EXTT2=
EXTT3=
EXTT4=
EXTT5=
EXTT6=
EXTT7=
EXTT8=
EXTT9=
PLAYORDER=
